HIERARCHY
ROOT Hips
{
	OFFSET -0.001795 -0.223333 0.028219
	CHANNELS 6 Xposition Yposition Zposition Zrotation Yrotation Xrotation
	JOINT LeftUpLeg
	{
		OFFSET 0.069520 -0.091406 -0.006815
		CHANNELS 3 Zrotation Yrotation Xrotation
		JOINT LeftLeg
		{
			OFFSET 0.034277 -0.375199 -0.004496
			CHANNELS 3 Zrotation Yrotation Xrotation
			JOINT LeftFoot
			{
				OFFSET -0.013596 -0.397961 -0.043693
				CHANNELS 3 Zrotation Yrotation Xrotation
				JOINT LeftToe
				{
					OFFSET 0.026358 -0.055791 0.119288
					CHANNELS 3 Zrotation Yrotation Xrotation
					End Site
					{
						OFFSET 0.000000 0.000000 0.000000
					}
				}
			}
		}
	}
	JOINT RightUpLeg
	{
		OFFSET -0.067670 -0.090522 -0.004320
		CHANNELS 3 Zrotation Yrotation Xrotation
		JOINT RightLeg
		{
			OFFSET -0.038290 -0.382569 -0.008850
			CHANNELS 3 Zrotation Yrotation Xrotation
			JOINT RightFoot
			{
				OFFSET 0.015774 -0.398415 -0.042312
				CHANNELS 3 Zrotation Yrotation Xrotation
				JOINT RightToe
				{
					OFFSET -0.025372 -0.048144 0.123348
					CHANNELS 3 Zrotation Yrotation Xrotation
					End Site
					{
						OFFSET 0.000000 0.000000 0.000000
					}
				}
			}
		}
	}
	JOINT Spine
	{
		OFFSET -0.002533 0.108963 -0.026696
		CHANNELS 3 Zrotation Yrotation Xrotation
		JOINT Spine1
		{
			OFFSET 0.005487 0.135180 0.001092
			CHANNELS 3 Zrotation Yrotation Xrotation
			JOINT Spine2
			{
				OFFSET 0.001457 0.052922 0.025425
				CHANNELS 3 Zrotation Yrotation Xrotation
				JOINT Neck
				{
					OFFSET -0.002778 0.213870 -0.042857
					CHANNELS 3 Zrotation Yrotation Xrotation
					JOINT Head
					{
						OFFSET 0.005152 0.064970 0.051349
						CHANNELS 3 Zrotation Yrotation Xrotation
						End Site
						{
							OFFSET 0.000000 0.000000 0.000000
						}
					}
				}
				JOINT LeftShoulder
				{
					OFFSET 0.078845 0.121749 -0.034090
					CHANNELS 3 Zrotation Yrotation Xrotation
					JOINT LeftArm
					{
						OFFSET 0.090977 0.030469 -0.008868
						CHANNELS 3 Zrotation Yrotation Xrotation
						JOINT LeftForeArm
						{
							OFFSET 0.259612 -0.012772 -0.027456
							CHANNELS 3 Zrotation Yrotation Xrotation
							JOINT LeftHand
							{
								OFFSET 0.249234 0.008986 -0.001171
								CHANNELS 3 Zrotation Yrotation Xrotation
								End Site
								{
									OFFSET 0.000000 0.000000 0.000000
								}
							}
						}
					}
				}
				JOINT RightShoulder
				{
					OFFSET -0.081759 0.118833 -0.038615
					CHANNELS 3 Zrotation Yrotation Xrotation
					JOINT RightArm
					{
						OFFSET -0.096012 0.032551 -0.009143
						CHANNELS 3 Zrotation Yrotation Xrotation
						JOINT RightForeArm
						{
							OFFSET -0.253742 -0.013329 -0.021401
							CHANNELS 3 Zrotation Yrotation Xrotation
							JOINT RightHand
							{
								OFFSET -0.255298 0.007772 -0.005559
								CHANNELS 3 Zrotation Yrotation Xrotation
								End Site
								{
									OFFSET 0.000000 0.000000 0.000000
								}
							}
						}
					}
				}
			}
		}
	}
}
MOTION
Frames: 7
Frame Time: 0.050000
-0.009481 0.142949 0.437444 9.955460 23.757262 -79.181661 4.263457 -5.008553 -37.823013 2.979500 -17.551783 88.005871 -13.898197 -11.904147 22.499783 0.000000 0.000000 0.000000 -2.804858 0.092854 -30.020040 1.606904 -2.364597 62.605472 -6.788259 -15.025155 9.143416 0.000000 0.000000 0.000000 21.611603 8.354212 -35.860250 -2.935643 0.724658 9.018688 -7.954028 5.983723 44.905487 16.184090 -10.732998 -11.748212 0.000000 0.000000 0.000000 -5.062454 -2.434063 -0.705141 -82.989588 11.992179 -30.771156 -83.358033 -45.263278 42.118069 0.000000 0.000000 0.000000 -6.401399 -5.904466 -3.095741 73.583496 -13.580810 -15.099039 1.937242 76.882365 11.811787 0.000000 0.000000 0.000000
-0.011555 0.149674 0.445949 10.451546 23.489677 -79.146054 4.648940 -4.370393 -35.959375 4.727317 -18.851264 85.557479 -14.335711 -11.869661 23.459573 0.000000 0.000000 0.000000 -2.811657 0.151381 -27.399347 1.241924 -1.826834 60.322601 -5.963127 -12.952224 2.756518 0.000000 0.000000 0.000000 22.025474 8.629110 -36.000896 -2.372029 0.573374 7.405124 -8.587600 5.227851 44.910472 15.713171 -9.356442 -14.556125 0.000000 0.000000 0.000000 -2.991290 -0.079204 -1.127134 -83.193440 13.823078 -32.182540 -79.735817 -44.531860 39.213836 0.000000 0.000000 0.000000 -8.390952 -7.130679 -3.596283 72.029157 -14.956170 -15.560135 19.152392 78.239851 25.483899 0.000000 0.000000 0.000000
-0.014311 0.149077 0.454901 10.184456 23.187113 -79.916670 4.957928 -3.701087 -33.383629 7.643751 -20.869525 80.997319 -14.645991 -14.293970 20.025774 0.000000 0.000000 0.000000 -2.668414 0.223551 -25.650064 1.546766 -1.960206 59.275184 -5.894680 -12.257881 -2.203672 0.000000 0.000000 0.000000 21.524516 8.483659 -35.325479 -1.527335 0.328669 5.064671 -8.131169 4.950664 45.407045 14.863762 -7.906875 -16.811523 0.000000 0.000000 0.000000 1.395857 2.743661 -1.256701 -84.510345 15.452976 -34.753865 -76.850517 -40.613463 34.255269 0.000000 0.000000 0.000000 -10.511237 -8.504896 -4.105650 71.030823 -16.449966 -15.888777 23.389139 76.318722 27.368021 0.000000 0.000000 0.000000
-0.017062 0.148878 0.462501 8.778197 23.908172 -80.522385 4.463072 -3.734425 -31.658800 9.925346 -23.045385 77.673516 -12.754094 -15.069367 14.383155 0.000000 0.000000 0.000000 -3.925332 -0.395344 -23.966710 2.728354 -3.093599 56.737040 -6.373366 -12.890760 -5.445094 0.000000 0.000000 0.000000 19.592976 7.391978 -36.029504 -1.319483 0.297007 3.940553 -6.500981 4.031576 45.796801 13.506059 -6.239920 -18.973410 0.000000 0.000000 0.000000 5.609511 5.198479 -1.244722 -85.256154 16.159996 -36.077862 -74.872043 -38.329891 31.523074 0.000000 0.000000 0.000000 -11.322309 -9.466098 -4.389067 67.623883 -16.382350 -15.129840 25.185744 72.802735 26.561706 0.000000 0.000000 0.000000
-0.018186 0.145999 0.468011 6.900705 24.711074 -81.589284 3.636972 -3.793393 -29.454420 13.680483 -26.461526 74.042045 -12.810631 -18.037418 10.538174 0.000000 0.000000 0.000000 -4.254907 -0.679661 -23.227700 2.880404 -3.727980 55.913685 -5.694145 -11.393473 -5.384576 0.000000 0.000000 0.000000 17.524628 6.116341 -36.523869 -1.134739 0.220355 3.565083 -4.761296 3.963974 45.664366 13.083443 -5.415220 -20.283655 0.000000 0.000000 0.000000 10.292032 6.303278 -0.577290 -86.166975 16.769673 -37.807672 -73.253958 -36.625727 29.266373 0.000000 0.000000 0.000000 -12.704575 -10.189749 -4.672501 66.048367 -15.161894 -13.661917 7.062408 69.793351 12.188243 0.000000 0.000000 0.000000
-0.017631 0.140242 0.471098 4.632164 25.829220 -82.375282 2.803209 -4.217966 -29.184577 14.941426 -28.557911 72.762163 -12.414341 -19.957277 7.443420 0.000000 0.000000 0.000000 -5.263198 -1.339783 -25.223515 3.312579 -4.979413 57.781949 -5.238985 -11.016397 -0.107717 0.000000 0.000000 0.000000 15.894703 4.930992 -36.697834 -1.274605 0.210646 4.050497 -3.792898 3.198649 45.629290 11.466475 -3.950701 -21.306820 0.000000 0.000000 0.000000 12.588257 8.376998 -0.676506 -85.722799 15.582419 -37.003149 -72.397819 -37.215066 29.459053 0.000000 0.000000 0.000000 -12.381191 -10.174611 -4.775926 63.421309 -11.144067 -11.103859 -9.658038 64.394234 1.000650 0.000000 0.000000 0.000000
-0.015818 0.138927 0.472212 2.953870 26.677652 -82.620461 2.973597 -4.290757 -29.214386 14.791796 -30.123777 73.555526 -11.061866 -20.269394 4.180217 0.000000 0.000000 0.000000 -5.754434 -1.832805 -27.062632 2.881658 -5.468433 59.416243 -4.056609 -9.322439 4.134176 0.000000 0.000000 0.000000 14.898409 4.093947 -37.458967 -1.396409 0.123238 5.162609 -2.194480 4.043965 45.477162 10.952516 -3.271296 -21.327469 0.000000 0.000000 0.000000 13.565287 8.143183 -0.281548 -84.973699 12.958279 -35.524909 -72.440729 -40.263436 31.705988 0.000000 0.000000 0.000000 -11.097371 -10.868326 -5.183880 59.975605 -7.510914 -8.670034 -29.086583 61.611144 -9.185921 0.000000 0.000000 0.000000
